<?xml version="1.0" encoding="UTF-8"?>
<svg version="1.1" xmlns="http://www.w3.org/2000/svg" width="218" height="220">
<path d="M0 0 C71.94 0 143.88 0 218 0 C218 72.6 218 145.2 218 220 C146.06 220 74.12 220 0 220 C0 147.4 0 74.8 0 0 Z " fill="#FDFEFE" transform="translate(0,0)"/>
<path d="M0 0 C71.94 0 143.88 0 218 0 C218 72.6 218 145.2 218 220 C146.06 220 74.12 220 0 220 C0 147.4 0 74.8 0 0 Z M76 15 C75.05471436 15.30550781 75.05471436 15.30550781 74.09033203 15.6171875 C48.96902802 23.98880231 28.04304908 42.45089151 16 66 C4.33108877 91.09511872 1.98506205 118.29423646 11.20556641 144.62646484 C20.45309644 169.56581508 38.78941872 190.67236202 63.11279297 201.98242188 C88.66132156 213.11824184 115.61543514 214.69774167 141.9375 204.9375 C166.68884045 195.1329524 187.17184589 176.21892626 197.953125 151.6953125 C208.48083179 126.47506195 209.41564119 98.05021798 199.02978516 72.51855469 C187.98887761 47.17784576 167.90024053 27.39945675 142.125 17.1875 C121.01681645 9.2733044 97.56755582 7.83844419 76 15 Z " fill="#FEFEFE" transform="translate(0,0)"/>
<path d="M0 0 C21.16188785 17.8061756 34.36484854 41.47566822 36.97949219 69.03369141 C39.08998358 96.18973851 31.90956637 122.11946691 14.21728516 143.14599609 C-2.19242966 161.83042959 -25.60488397 176.34788165 -50.82568359 178.54052734 C-65.25739044 179.44297905 -79.038572 179.11856901 -92.82568359 174.54052734 C-93.45587402 174.33685547 -94.08606445 174.13318359 -94.73535156 173.92333984 C-119.87353524 165.54609992 -140.75580617 147.08767298 -152.82568359 123.54052734 C-163.82151765 100.07327514 -167.09227878 73.43599109 -158.82568359 48.54052734 C-158.52017578 47.5952417 -158.52017578 47.5952417 -158.20849609 46.63085938 C-149.83688128 21.50955536 -131.37479208 0.58357642 -107.82568359 -11.45947266 C-72.27829071 -27.98855851 -31.03628838 -24.81076918 0 0 Z M-127.82568359 22.54052734 C-142.52494842 39.59386438 -149.03060167 62.2710513 -147.99121094 84.45703125 C-147.37838472 92.17068748 -145.72279155 99.88516217 -143.32568359 107.22802734 C-143.16068359 108.32115234 -142.99568359 109.41427734 -142.82568359 110.54052734 C-145.20068359 113.16552734 -145.20068359 113.16552734 -147.82568359 115.54052734 C-148.82741895 118.40812327 -148.82741895 118.40812327 -147.82568359 121.54052734 C-141.10946928 131.45301232 -130.34986093 138.61038496 -120.82568359 145.54052734 C-119.73320313 146.36230469 -119.73320313 146.36230469 -118.61865234 147.20068359 C-96.87154035 162.79373712 -69.50850642 165.75177998 -43.64990234 161.97412109 C-22.74998574 158.23818094 -4.61476735 146.95960149 10.80712891 132.72021484 C13.70141191 130.05518198 16.68242158 127.50042978 19.67822266 124.95068359 C21.83572226 122.91711347 22.15453048 121.68892179 22.54931641 118.72802734 C22.52045588 115.31762398 22.52045588 115.31762398 19.54931641 113.37255859 C17.17431641 110.54052734 17.17431641 110.54052734 17.12207031 108.62719727 C17.55141821 106.37532724 18.12916398 104.23272087 18.79931641 102.04052734 C19.20835878 100.55099568 19.61721763 99.06141361 20.02587891 97.57177734 C20.32860718 96.51180542 20.32860718 96.51180542 20.63745117 95.43041992 C26.05134004 76.37225087 21.49930643 55.01906311 12.17431641 38.02490234 C11.51203825 36.86093604 10.8457833 35.69921717 10.17431641 34.54052734 C9.43181641 33.24888672 9.43181641 33.24888672 8.67431641 31.93115234 C-3.44716747 12.50922931 -23.73912875 -0.30885315 -45.82568359 -5.45947266 C-77.05480558 -10.88903996 -106.1672133 -0.25506949 -127.82568359 22.54052734 Z " fill="#D4F1EE" transform="translate(168.82568359375,32.45947265625)"/>
<path d="M0 0 C4.35672609 1.15188494 6.36180309 3.13417645 9.2265625 6.40625 C21.17656734 19.15559265 36.7922173 29.32038449 53.6640625 33.96875 C54.7159375 34.2678125 55.7678125 34.566875 56.8515625 34.875 C64.58569975 36.88290102 71.70046567 37.45704189 79.6640625 36.96875 C80.31391113 36.93152832 80.96375977 36.89430664 81.63330078 36.85595703 C106.91609606 35.22461619 128.92492787 22.67095547 146.0390625 4.34375 C148.62371351 1.70468528 149.72938441 0.94549983 153.3515625 -0.34375 C156.6640625 -0.03125 156.6640625 -0.03125 159.6015625 2.03125 C161.6640625 4.96875 161.6640625 4.96875 162.3515625 7.84375 C160.71816579 15.26828052 153.30864176 20.35298568 147.6640625 24.96875 C146.70371094 25.75507813 145.74335938 26.54140625 144.75390625 27.3515625 C120.64508382 46.68337 93.28762485 55.50835045 62.3515625 52.34375 C39.67676714 49.59281832 19.61198951 37.77814845 3.18359375 22.3359375 C0.24380539 19.57390378 -2.80060237 16.95385084 -5.875 14.34375 C-8.01206874 12.33239119 -8.3202797 11.08618349 -8.7109375 8.15625 C-8.3359375 4.96875 -8.3359375 4.96875 -6.2734375 2.03125 C-3.3359375 -0.03125 -3.3359375 -0.03125 0 0 Z " fill="#18B9A7" transform="translate(29.3359375,143.03125)"/>
<path d="M0 0 C2.45287589 1.75138537 4.50773971 3.86314628 6.625 6 C12.41182655 11.58954837 18.23816362 16.59498626 25 21 C26.06605469 21.69996094 27.13210937 22.39992187 28.23046875 23.12109375 C39.592358 30.25677584 52.29349236 34.41184716 65.84375 32.625 C84.86689812 28.14896515 103.42870046 15.81991814 116.47290039 1.36816406 C118 0 118 0 121.4375 -0.5625 C125 0 125 0 127.4375 2.6875 C129.00884191 6.01874485 129.43098461 7.42503793 129 11 C127.63671875 12.921875 127.63671875 12.921875 125.6875 14.75 C124.95789063 15.43449219 124.22828125 16.11898437 123.4765625 16.82421875 C119.08610985 20.68144608 114.57055941 24.35938125 110 28 C109.28199219 28.6084375 108.56398438 29.216875 107.82421875 29.84375 C93.26591793 41.90712545 74.06087402 49.99792766 55 49 C34.44036851 46.99802798 17.66630955 37.03778052 2.60253906 23.42480469 C0.93886208 21.94564276 -0.76293045 20.52241319 -2.4765625 19.1015625 C-3.58933312 18.15196834 -4.7013395 17.20147772 -5.8125 16.25 C-6.80894531 15.40953125 -7.80539063 14.5690625 -8.83203125 13.703125 C-11 11 -11 11 -11.4921875 7.32421875 C-11 4 -11 4 -8.3125 1.5625 C-3.64921223 -0.63716404 -3.64921223 -0.63716404 0 0 Z " fill="#19B9A7" transform="translate(47,126)"/>
<path d="M0 0 C2.40234375 1.8359375 2.40234375 1.8359375 4.9375 4.375 C15.7624735 14.73913785 28.30322467 24.61976941 43.8125 25.75 C59.68557941 24.95425196 72.90952362 13.82271358 83.875 3.375 C86.81944803 0.70608748 87.77205951 0.04484075 91.8125 -0.75 C95.56612114 0.13320497 96.91547785 0.74814544 99 4 C99.44921875 7.2890625 99.44921875 7.2890625 99 11 C97.15311909 13.32240673 95.60495882 14.9422939 93.375 16.8125 C92.79177979 17.32312988 92.20855957 17.83375977 91.60766602 18.35986328 C75.33793856 32.34874726 59.18952365 42.30843718 37.12646484 41.1953125 C32.31801467 40.7536638 28.27875955 39.14272779 24 37 C22.68708984 36.38125 22.68708984 36.38125 21.34765625 35.75 C13.51313829 31.79339982 6.75336015 26.5358415 0 21 C-0.54350098 20.56574707 -1.08700195 20.13149414 -1.64697266 19.68408203 C-3.22164908 18.41742237 -4.76766929 17.11539317 -6.3125 15.8125 C-7.21613281 15.05582031 -8.11976562 14.29914063 -9.05078125 13.51953125 C-11 11 -11 11 -11.4609375 7.3515625 C-11 4 -11 4 -8.3125 1.5625 C-4.94549536 -0.02570974 -3.61002209 -0.51494309 0 0 Z " fill="#19B9A8" transform="translate(62,111)"/>
<path d="M0 0 C4.07295871 2.07350625 6.37200653 3.74217093 8 8 C8.60942382 13.48481435 9.30812032 19.83544296 6.25 24.6875 C2.98605612 28.04210899 0.23881955 29.29972282 -4.4375 29.4375 C-8.1546324 29.36413554 -8.85496017 29.11418029 -11.9375 26.6875 C-16.71037803 20.4682953 -16.78680502 15.71637691 -16 8 C-13.18096004 0.47330218 -7.31707308 -1.02389077 0 0 Z " fill="#19B9A8" transform="translate(110,94)"/>
</svg>
