<?xml version="1.0" encoding="UTF-8"?>
<svg version="1.1" xmlns="http://www.w3.org/2000/svg" width="1000" height="280">
<path d="M0 0 C1.14001465 0.00902344 2.2800293 0.01804688 3.45458984 0.02734375 C21.75372469 0.40223 39.55036277 6.96997125 53.1875 19.4375 C54.52554688 20.63826172 54.52554688 20.63826172 55.890625 21.86328125 C70.08989646 35.26723833 79.81071223 54.03301617 80.62109375 73.76953125 C80.6447833 75.92955799 80.64561186 78.0899417 80.625 80.25 C80.61597656 81.39001465 80.60695312 82.5300293 80.59765625 83.70458984 C80.22277 102.00372469 73.65502875 119.80036277 61.1875 133.4375 C60.38699219 134.32953125 59.58648437 135.2215625 58.76171875 136.140625 C45.35776167 150.33989646 26.59198383 160.06071223 6.85546875 160.87109375 C4.69544201 160.8947833 2.5350583 160.89561186 0.375 160.875 C-0.76501465 160.86597656 -1.9050293 160.85695312 -3.07958984 160.84765625 C-21.37872469 160.47277 -39.17536277 153.90502875 -52.8125 141.4375 C-53.70453125 140.63699219 -54.5965625 139.83648437 -55.515625 139.01171875 C-69.71489646 125.60776167 -79.43571223 106.84198383 -80.24609375 87.10546875 C-80.2697833 84.94544201 -80.27061186 82.7850583 -80.25 80.625 C-80.24097656 79.48498535 -80.23195312 78.3449707 -80.22265625 77.17041016 C-79.84777 58.87127531 -73.28002875 41.07463723 -60.8125 27.4375 C-60.01199219 26.54546875 -59.21148437 25.6534375 -58.38671875 24.734375 C-42.99899265 8.43362897 -22.35087665 -0.21327808 0 0 Z M-48.53125 33.0625 C-62.13804229 47.22847554 -67.2697485 64.14818555 -67.17285156 83.33862305 C-66.99056693 91.48604508 -66.44588133 99.48742801 -61.8125 106.4375 C-60.14620792 107.10510237 -58.47951169 107.77169653 -56.8125 108.4375 C-54.9609375 110.1015625 -54.9609375 110.1015625 -53.1875 112.0625 C-39.81279082 125.83497005 -21.22706778 135.24236837 -1.98046875 136.4375 C19.57091594 136.4375 38.97279581 126.62408779 54.0234375 111.60546875 C54.53132813 111.07566406 55.03921875 110.54585938 55.5625 110 C58.1875 107.4375 58.1875 107.4375 60.875 106.625 C63.79208003 105.12703998 63.90216584 104.16598151 64.9375 101.125 C70.24155137 82.96170781 68.16703381 63.37310889 59.1953125 46.828125 C49.75524512 30.88653261 34.96940556 19.43130569 17.0625 14.5625 C-7.50017634 9.33846976 -30.24091873 15.92978464 -48.53125 33.0625 Z " fill="#11B7A2" transform="translate(139.8125,59.5625)"/>
<path d="M0 0 C7.92 0 15.84 0 24 0 C28.38301116 4.9513053 29.79755694 7.18331108 32 13 C33.2021662 15.15799219 34.44191813 17.29548506 35.71875 19.41015625 C36.98140754 21.62632894 38.24181755 23.84378363 39.5 26.0625 C40.73944707 28.24096295 41.97903924 30.41934335 43.21875 32.59765625 C44.7965625 35.37042969 46.374375 38.14320312 48 41 C53.28 50.24 58.56 59.48 64 69 C64 46.23 64 23.46 64 0 C70.27 0 76.54 0 83 0 C83 31.68 83 63.36 83 96 C74.75 96 66.5 96 58 96 C55.525 91.66875 55.525 91.66875 53 87.25 C52.42709229 86.24759277 51.85418457 85.24518555 51.26391602 84.21240234 C48.52092096 79.41290626 45.77872817 74.61295598 43.03890991 69.81164551 C41.6741229 67.42010816 40.3088782 65.02883222 38.94360352 62.63757324 C37.97827713 60.94643666 37.01353962 59.25496398 36.04882812 57.56347656 C30.4076232 47.68410584 24.70042699 37.84619207 19 28 C19 50.44 19 72.88 19 96 C12.73 96 6.46 96 0 96 C0 64.32 0 32.64 0 0 Z " fill="#0F1629" transform="translate(597,89)"/>
<path d="M0 0 C6.6 0 13.2 0 20 0 C20.495 18.315 20.495 18.315 21 37 C22.98 34.69 24.96 32.38 27 30 C34.33974322 24.59905687 43.22483628 24.98547785 52 26 C57.97530598 27.39977885 61.20648543 30.87470792 64.7734375 35.70703125 C68.60138687 42.86310221 68.26418633 50.00171336 68.1953125 57.93359375 C68.1924826 59.16666763 68.18965271 60.39974152 68.18673706 61.67018127 C68.1755786 65.59272125 68.15048151 69.5150295 68.125 73.4375 C68.11383396 76.10351228 68.10583976 78.76952239 68.09765625 81.43554688 C68.07565338 87.95711998 68.04115297 94.47852075 68 101 C61.4 101 54.8 101 48 101 C47.9906543 99.55753906 47.98130859 98.11507812 47.97167969 96.62890625 C47.93166985 91.25376017 47.86587962 85.87917981 47.79248047 80.50439453 C47.76433468 78.18252861 47.74308851 75.86056801 47.72900391 73.53857422 C47.70748645 70.19189201 47.66078876 66.84634051 47.609375 63.5 C47.60814636 62.4694751 47.60691772 61.4389502 47.60565186 60.37719727 C47.48392578 54.32496202 46.92606401 48.86265706 43 44 C39.29546408 41.701549 36.33551179 41.61969195 32 42 C27.41602492 43.91887329 25.29601575 46.64548736 23 51 C21.20718038 57.51822486 20.68035703 63.99659864 20.5859375 70.7265625 C20.56657135 71.60025482 20.5472052 72.47394714 20.5272522 73.37411499 C20.46817736 76.1243153 20.42136388 78.87455913 20.375 81.625 C20.33675362 83.50652718 20.29769819 85.3880381 20.2578125 87.26953125 C20.16103581 91.84626238 20.08089844 96.42285148 20 101 C13.4 101 6.8 101 0 101 C0 67.67 0 34.34 0 0 Z " fill="#0E1629" transform="translate(511,84)"/>
<path d="M0 0 C8.10594838 9.46030883 8.6468825 20.8743163 9.56640625 32.828125 C-6.27359375 32.828125 -22.11359375 32.828125 -38.43359375 32.828125 C-36.64818426 43.58009861 -36.64818426 43.58009861 -31.43359375 51.828125 C-27.36634452 53.9541871 -23.78159559 54.14428621 -19.33203125 53.4453125 C-16.16990689 52.41729676 -14.47097552 50.35941751 -12.43359375 47.828125 C-11.93859375 46.838125 -11.93859375 46.838125 -11.43359375 45.828125 C-5.016707 45.72462683 1.19335027 46.08304956 7.56640625 46.828125 C6.89268376 54.16421431 2.82976048 58.00338363 -2.43359375 62.828125 C-11.9984114 69.23253962 -23.37344989 68.6554404 -34.43359375 67.828125 C-41.70411061 66.38099574 -47.6275643 62.43694333 -52.43359375 56.828125 C-60.10665862 45.03542479 -61.27217219 30.74182351 -58.74609375 17.12109375 C-56.30436937 8.38175525 -52.25515687 0.80548335 -44.43359375 -4.171875 C-29.86934456 -11.32579318 -12.46865443 -11.45611869 0 0 Z M-35.43359375 9.828125 C-37.02709736 13.34231547 -38.43359375 16.93419767 -38.43359375 20.828125 C-29.19359375 20.828125 -19.95359375 20.828125 -10.43359375 20.828125 C-11.6914954 11.58879129 -11.6914954 11.58879129 -17.3046875 5.83203125 C-24.18161748 2.58914867 -30.59936429 4.05063126 -35.43359375 9.828125 Z " fill="#0E1629" transform="translate(753.43359375,118.171875)"/>
<path d="M0 0 C8.10594838 9.46030883 8.6468825 20.8743163 9.56640625 32.828125 C-6.27359375 32.828125 -22.11359375 32.828125 -38.43359375 32.828125 C-36.64818426 43.58009861 -36.64818426 43.58009861 -31.43359375 51.828125 C-27.36634452 53.9541871 -23.78159559 54.14428621 -19.33203125 53.4453125 C-16.16990689 52.41729676 -14.47097552 50.35941751 -12.43359375 47.828125 C-11.93859375 46.838125 -11.93859375 46.838125 -11.43359375 45.828125 C-5.016707 45.72462683 1.19335027 46.08304956 7.56640625 46.828125 C6.89268376 54.16421431 2.82976048 58.00338363 -2.43359375 62.828125 C-11.9984114 69.23253962 -23.37344989 68.6554404 -34.43359375 67.828125 C-41.70411061 66.38099574 -47.6275643 62.43694333 -52.43359375 56.828125 C-60.10665862 45.03542479 -61.27217219 30.74182351 -58.74609375 17.12109375 C-56.30436937 8.38175525 -52.25515687 0.80548335 -44.43359375 -4.171875 C-29.86934456 -11.32579318 -12.46865443 -11.45611869 0 0 Z M-35.43359375 9.828125 C-37.02709736 13.34231547 -38.43359375 16.93419767 -38.43359375 20.828125 C-29.19359375 20.828125 -19.95359375 20.828125 -10.43359375 20.828125 C-11.6914954 11.58879129 -11.6914954 11.58879129 -17.3046875 5.83203125 C-24.18161748 2.58914867 -30.59936429 4.05063126 -35.43359375 9.828125 Z " fill="#0E1629" transform="translate(410.43359375,118.171875)"/>
<path d="M0 0 C4.52583453 3.61415563 6.97050355 6.89241778 8.671875 12.421875 C8.671875 13.411875 8.671875 14.401875 8.671875 15.421875 C6.00153123 15.81748148 3.35608489 16.15000165 0.671875 16.421875 C-0.19179688 16.51339844 -1.05546875 16.60492188 -1.9453125 16.69921875 C-4.53568327 16.85679323 -6.77872273 16.91998202 -9.328125 16.421875 C-11.765625 13.484375 -11.765625 13.484375 -13.328125 10.421875 C-16.85700919 9.24558027 -20.09144477 9.20005663 -23.765625 9.171875 C-25.08433594 9.14609375 -26.40304687 9.1203125 -27.76171875 9.09375 C-31.41744594 9.43009292 -32.83141757 9.79376191 -35.328125 12.421875 C-35.99479167 14.921875 -35.99479167 14.921875 -35.328125 17.421875 C-32.43890038 20.08381063 -29.83575365 21.01117504 -26.0390625 21.8515625 C-24.50185547 22.20927734 -24.50185547 22.20927734 -22.93359375 22.57421875 C-20.80393142 23.05062447 -18.67373262 23.5246392 -16.54296875 23.99609375 C-7.36820538 26.13801728 1.64305805 28.83115295 7.55078125 36.61328125 C11.30735355 42.67353552 11.00247288 48.67943365 9.671875 55.421875 C7.75371932 60.96321362 4.45509822 64.23023943 -0.328125 67.421875 C-8.10224996 71.17528951 -15.28280607 72.04769565 -23.828125 71.921875 C-25.40400391 71.94507813 -25.40400391 71.94507813 -27.01171875 71.96875 C-36.4489598 71.92208873 -45.79444664 69.89980097 -52.890625 63.28125 C-55.6192969 59.75177222 -56.98691027 55.6371213 -58.328125 51.421875 C-52.33492349 49.96253752 -46.46966725 49.00678379 -40.328125 48.421875 C-39.626875 49.535625 -38.925625 50.649375 -38.203125 51.796875 C-35.56750335 55.41081604 -33.87419318 56.67797293 -29.328125 57.421875 C-22.5093665 57.93470642 -16.16913788 58.31588359 -10.328125 54.421875 C-8.91669748 51.5373642 -8.91669748 51.5373642 -9.328125 48.421875 C-12.22387224 44.7416294 -14.77027001 43.71834356 -19.2734375 42.7109375 C-20.43359375 42.43507812 -21.59375 42.15921875 -22.7890625 41.875 C-25.20779365 41.32833582 -27.62705612 40.78401651 -30.046875 40.2421875 C-38.48817503 38.22969213 -47.71197847 35.71352405 -52.890625 28.171875 C-55.64612913 22.2147375 -56.02871605 15.87897625 -54.203125 9.609375 C-51.89267558 3.6275265 -47.12862759 -0.65412056 -41.453125 -3.52734375 C-28.57976158 -7.99989097 -11.43138167 -7.74878892 0 0 Z " fill="#0E1629" transform="translate(829.328125,114.578125)"/>
<path d="M0 0 C27.72 0 55.44 0 84 0 C84 5.28 84 10.56 84 16 C73.44 16 62.88 16 52 16 C52 42.73 52 69.46 52 97 C45.07 97 38.14 97 31 97 C31 70.27 31 43.54 31 16 C20.77 16 10.54 16 0 16 C0 10.72 0 5.44 0 0 Z " fill="#0E162A" transform="translate(261,89)"/>
<path d="M0 0 C5.80240529 5.93734495 7.62983387 10.51933547 9.6875 18.75 C2.7575 18.75 -4.1725 18.75 -11.3125 18.75 C-12.6325 16.11 -13.9525 13.47 -15.3125 10.75 C-18.53997055 8.59835297 -19.51755639 8.47754921 -23.25 8.5 C-24.10464844 8.49484375 -24.95929688 8.4896875 -25.83984375 8.484375 C-28.52073855 8.77237002 -30.07619729 9.25273295 -32.3125 10.75 C-33.60613407 12.46751383 -33.60613407 12.46751383 -34.5 14.5 C-34.82355469 15.15484375 -35.14710938 15.8096875 -35.48046875 16.484375 C-38.80755602 25.54404926 -38.5869903 37.67655201 -35.3125 46.75 C-33.21771501 50.46655401 -31.8617457 52.3838362 -28.3125 54.75 C-23.65320788 55.42915105 -19.59582624 55.40531553 -15.375 53.25 C-12.59595388 50.15733357 -12.59595388 50.15733357 -10.3125 42.75 C-3.7125 42.75 2.8875 42.75 9.6875 42.75 C8.63474672 51.17202624 7.0331981 56.92546495 0.5703125 62.61328125 C-7.07665247 67.94498866 -14.33093753 70.30607552 -23.625 70.1875 C-24.45805664 70.17992676 -25.29111328 70.17235352 -26.14941406 70.16455078 C-35.24780769 69.92213928 -43.1078501 67.87306127 -49.8203125 61.43359375 C-58.91572587 51.17149123 -60.20589246 38.92217282 -59.4765625 25.71826172 C-58.70827255 16.50106894 -55.09155709 7.44000633 -48.42578125 0.8984375 C-34.99133405 -9.81744769 -13.8674464 -10.41818308 0 0 Z " fill="#0E1629" transform="translate(488.3125,116.25)"/>
<path d="M0 0 C4.62 0 9.24 0 14 0 C14 5.61 14 11.22 14 17 C18.62 17 23.24 17 28 17 C28 21.29 28 25.58 28 30 C23.38 30 18.76 30 14 30 C14.0687703 36.21174426 14.15668504 42.42280849 14.26245117 48.6340332 C14.29573128 50.74756336 14.32375353 52.86118306 14.34643555 54.97485352 C14.37992472 58.01096806 14.43223764 61.04625975 14.48828125 64.08203125 C14.49467117 65.02899368 14.5010611 65.97595612 14.50764465 66.95161438 C14.53733589 68.27264412 14.53733589 68.27264412 14.56762695 69.62036133 C14.57873001 70.39535477 14.58983307 71.17034821 14.60127258 71.96882629 C15.10344179 74.52694708 15.94884183 75.43192415 18 77 C20.51289675 77.36213568 20.51289675 77.36213568 23.1875 77.1875 C24.775625 77.125625 26.36375 77.06375 28 77 C28 81.29 28 85.58 28 90 C22.69239962 92.12304015 19.1383551 92.36641516 13.5625 92.375 C12.72912109 92.39949219 11.89574219 92.42398438 11.03710938 92.44921875 C5.51419175 92.47541441 2.38213371 91.66765539 -2 88 C-5.36517267 84.17066559 -6.12592713 81.00048614 -6.11352539 75.9777832 C-6.11344986 74.95695145 -6.11337433 73.93611969 -6.11329651 72.88435364 C-6.10813522 71.78427475 -6.10297394 70.68419586 -6.09765625 69.55078125 C-6.0962413 68.4230278 -6.09482635 67.29527435 -6.09336853 66.13334656 C-6.0877647 62.52637088 -6.07521153 58.91945696 -6.0625 55.3125 C-6.05748549 52.86914152 -6.0529225 50.42578207 -6.04882812 47.98242188 C-6.03779403 41.98825741 -6.02052679 35.99413918 -6 30 C-9.3 30 -12.6 30 -16 30 C-16 25.71 -16 21.42 -16 17 C-12.37 17 -8.74 17 -5 17 C-4.731875 15.68 -4.46375 14.36 -4.1875 13 C-3.18827949 8.46397021 -1.72361286 4.30903216 0 0 Z " fill="#0E1729" transform="translate(862,94)"/>
<path d="M0 0 C3.90836357 0.10506354 5.46436751 1.26271309 8.125 4.0625 C9.11886719 5.15691406 9.11886719 5.15691406 10.1328125 6.2734375 C19.53641386 16.13575112 33.91694933 25.53092261 47.85595703 25.91821289 C64.18820431 26.06954382 77.00884275 18.90940653 88.59423828 7.70898438 C89.67080162 6.63845309 90.72796915 5.5479303 91.76123047 4.43554688 C94.61091904 1.54545718 96.63421754 0.26917608 100.6328125 0.16015625 C104.375 0.625 104.375 0.625 106.375 2.625 C107.07264561 6.67134451 107.39669927 9.12690722 105.04296875 12.578125 C91.73298984 26.36446105 73.36255859 39.40485553 53.67431641 39.96899414 C30.65386282 40.24227864 14.88478756 29.55906709 -1.625 14.625 C-2.3984375 13.94308594 -3.171875 13.26117188 -3.96875 12.55859375 C-5.8783471 10.32922922 -6.12078652 9.38789583 -6 6.5 C-5.50767078 1.41259807 -5.01351446 0.86439904 0 0 Z " fill="#13B8A6" transform="translate(89.625,151.375)"/>
<path d="M0 0 C5.428864 0.11738084 8.15501502 3.61922621 11.8515625 7.23046875 C20.01066922 14.79990551 29.87591444 20.56769282 41.1953125 20.21484375 C53.5059245 18.25038439 63.92212625 9.26537375 72.5 0.6875 C78.23611111 0.41435185 78.23611111 0.41435185 80.5 0.6875 C82.5 2.6875 82.5 2.6875 83.3125 6.1875 C83.17425898 10.68439909 81.06789546 12.61964612 77.875 15.625 C71.48235375 20.96454622 64.70963637 25.52776856 57.5 29.6875 C56.68144531 30.16574219 55.86289063 30.64398438 55.01953125 31.13671875 C46.41596771 35.35705543 35.29110885 35.08327131 26.12890625 32.875 C18.1528043 29.82437933 11.24259749 24.83471328 4.5 19.6875 C3.49582031 18.92824219 2.49164063 18.16898438 1.45703125 17.38671875 C-5.09434918 12.03657874 -5.09434918 12.03657874 -6.18359375 8.4140625 C-6.25 6.25 -6.25 6.25 -5.5 2.6875 C-3.5 0.6875 -3.5 0.6875 0 0 Z " fill="#13B7A6" transform="translate(101.5,139.3125)"/>
<path d="M0 0 C2.8100346 1.79363911 4.50940468 3.01880935 6 6 C6.93762008 16.40604586 6.93762008 16.40604586 4.125 21.1875 C0.79619687 24.02677326 -1.5680664 24.33290394 -5.9609375 24.29296875 C-9.13134567 23.83745033 -10.8192402 22.24684343 -13 20 C-15.08540153 15.82919693 -14.45427114 10.54271136 -14 6 C-10.55138319 0.13735141 -6.62053428 -0.95122619 0 0 Z " fill="#13B8A6" transform="translate(144,126)"/>
</svg>
